<?xml version="1.0" standalone="no"?><!DOCTYPE svg PUBLIC "-//W3C//DTD SVG 1.1//EN" "http://www.w3.org/Graphics/SVG/1.1/DTD/svg11.dtd"><svg t="1515388783595" class="icon" style="" viewBox="0 0 1024 1024" version="1.1" xmlns="http://www.w3.org/2000/svg" p-id="994" xmlns:xlink="http://www.w3.org/1999/xlink" width="200" height="200"><defs><style type="text/css"></style></defs><path d="M483.67028 552.083927c0-1.520633-0.199545-2.994194-0.544399-4.41659-9.547447-70.487378-58.372455-129.384789-125.126812-156.497287 38.604226-24.954345 63.944358-66.852594 63.944358-114.364701 0-76.495208-65.765843-138.488121-146.82909-138.488121-81.065294 0-146.831136 61.993936-146.831136 138.488121 0 47.535643 25.365714 89.452311 64.001663 114.402563-66.118883 26.873044-114.615411 84.902692-124.798331 154.479327-0.729617 2.009773-1.144056 4.15667-1.144056 6.396687l0.106424 1.858324c0 10.891048 9.455349 19.763113 20.929682 19.763113 11.580756 0 20.930705-8.872065 20.930705-19.763113l-0.01535-0.26606 0.413416 0c9.767458-75.387991 75.745125-134.409223 157.105131-138.613988 3.076058 0.182149 6.175653 0.284479 9.30083 0.284479 3.127224 0 6.226818-0.103354 9.305947-0.284479 81.442894 4.202719 147.34586 63.224973 157.100014 138.613988l0.472767 0 0.030699 0.26606c0 10.891048 9.348925 19.763113 20.930705 19.763113 11.57871 0 20.928658-8.872065 20.928658-19.763113L483.67028 552.083927zM275.114336 375.824551c-58.011228 0-104.864326-44.303019-104.864326-98.965989 0-54.661947 46.853098-98.965989 104.864326-98.965989 57.902758 0 104.863303 44.304042 104.863303 98.965989C379.976616 331.521532 333.017094 375.824551 275.114336 375.824551z" p-id="995" fill="#fcfcf7"></path><path d="M962.364733 847.825558c-0.079818-0.868787-0.174985-1.732457-0.261966-2.600221l-0.005117-0.054235c0-2.599198-0.295735-5.122671-0.836041-7.546883-14.375405-117.386524-87.62878-215.470423-187.720406-260.642229 57.914014-41.60149 95.912443-111.451348 95.912443-190.625572 0-127.492696-98.594529-230.868111-220.243123-230.868111-121.595382 0-220.190935 103.375415-220.190935 230.868111 0 79.199807 38.022988 149.069107 95.955422 190.664457C425.827897 621.794615 353.045243 718.469422 337.733513 834.383408c-1.115404 3.37998-1.730411 7.006578-1.730411 10.787694l0.222057 2.537799c-0.00307 0.038886-0.008186 0.076748-0.011256 0.115634l0.021489 0 0.032746 0.37146c0 18.169825 14.077623 32.936133 31.448246 32.936133 17.317411 0 31.395034-14.766308 31.395034-32.936133l-0.038886-0.37146 0.576121 0c14.622022-125.722376 113.641223-224.114291 235.894591-231.003188 4.520967 0.290619 9.074679 0.455371 13.666254 0.455371 4.609994 0 9.18315-0.165776 13.722536-0.458441 122.274858 6.866385 221.320665 105.265462 235.944733 231.006258l0.656963 0 0.038886 0.37146c0 18.169825 14.024411 32.936133 31.395034 32.936133 17.371646 0 31.396057-14.766308 31.396057-32.936133l-0.032746-0.37146L962.364733 847.824535zM649.156288 551.352263c-86.854137 0-157.293419-73.838705-157.293419-164.890444 0-91.102904 70.439282-164.942633 157.293419-164.942633 86.908372 0 157.348678 73.839729 157.348678 164.942633C806.504966 477.513558 736.06466 551.352263 649.156288 551.352263z" p-id="996" fill="#fcfcf7"></path></svg>